HIERARCHY
ROOT mixamorig7:Hips
{
	OFFSET 0.000000 97.888290 0.000000
	CHANNELS 6 Xposition Yposition Zposition Xrotation Yrotation Zrotation
	JOINT mixamorig7:Spine
	{
		OFFSET 0.000000 10.737198 -0.638600
		CHANNELS 3 Xrotation Yrotation Zrotation
		JOINT mixamorig7:Spine1
		{
			OFFSET 0.000000 12.526764 -0.745038
			CHANNELS 3 Xrotation Yrotation Zrotation
			JOINT mixamorig7:Spine2
			{
				OFFSET 0.000000 14.316299 -0.851473
				CHANNELS 3 Xrotation Yrotation Zrotation
				JOINT mixamorig7:Neck
				{
					OFFSET 0.000000 16.105743 -0.957901
					CHANNELS 3 Xrotation Yrotation Zrotation
					JOINT mixamorig7:Head
					{
						OFFSET 0.000000 4.186798 1.019993
						CHANNELS 3 Xrotation Yrotation Zrotation
						JOINT mixamorig7:HeadTop_End
						{
							OFFSET 0.000000 22.222412 5.413761
							CHANNELS 3 Xrotation Yrotation Zrotation
							End Site
							{
								OFFSET 0.000000 22.872345 -0.000040
							}
						}
					}
				}
				JOINT mixamorig7:LeftShoulder
				{
					OFFSET 7.459100 13.238831 -0.956989
					CHANNELS 3 Xrotation Yrotation Zrotation
					JOINT mixamorig7:LeftArm
					{
						OFFSET 14.899144 -5.650955 0.001856
						CHANNELS 3 Xrotation Yrotation Zrotation
						JOINT mixamorig7:LeftForeArm
						{
							OFFSET 23.759905 0.000000 -0.000000
							CHANNELS 3 Xrotation Yrotation Zrotation
							JOINT mixamorig7:LeftHand
							{
								OFFSET 23.427200 0.000000 -0.000000
								CHANNELS 3 Xrotation Yrotation Zrotation
								JOINT mixamorig7:LeftHandThumb1
								{
									OFFSET 3.444801 -1.242386 2.764239
									CHANNELS 3 Xrotation Yrotation Zrotation
									JOINT mixamorig7:LeftHandThumb2
									{
										OFFSET 2.843140 -1.641479 1.641487
										CHANNELS 3 Xrotation Yrotation Zrotation
										JOINT mixamorig7:LeftHandThumb3
										{
											OFFSET 2.575638 -1.487045 1.487043
											CHANNELS 3 Xrotation Yrotation Zrotation
											JOINT mixamorig7:LeftHandThumb4
											{
												OFFSET 2.160782 -1.247528 1.247527
												CHANNELS 3 Xrotation Yrotation Zrotation
												End Site
												{
													OFFSET 1.950348 -1.229736 1.570183
												}
											}
										}
									}
								}
								JOINT mixamorig7:LeftHandIndex1
								{
									OFFSET 10.234055 -0.022766 2.670493
									CHANNELS 3 Xrotation Yrotation Zrotation
									JOINT mixamorig7:LeftHandIndex2
									{
										OFFSET 3.310387 0.000000 -0.000000
										CHANNELS 3 Xrotation Yrotation Zrotation
										JOINT mixamorig7:LeftHandIndex3
										{
											OFFSET 3.057747 0.000000 -0.000000
											CHANNELS 3 Xrotation Yrotation Zrotation
											JOINT mixamorig7:LeftHandIndex4
											{
												OFFSET 2.606407 0.000000 -0.000000
												CHANNELS 3 Xrotation Yrotation Zrotation
												End Site
												{
													OFFSET 2.606392 -0.000168 -0.005998
												}
											}
										}
									}
								}
								JOINT mixamorig7:LeftHandMiddle1
								{
									OFFSET 9.955849 0.000000 -0.000000
									CHANNELS 3 Xrotation Yrotation Zrotation
									JOINT mixamorig7:LeftHandMiddle2
									{
										OFFSET 3.505981 0.000000 0.000000
										CHANNELS 3 Xrotation Yrotation Zrotation
										JOINT mixamorig7:LeftHandMiddle3
										{
											OFFSET 3.424103 0.000000 0.000000
											CHANNELS 3 Xrotation Yrotation Zrotation
											JOINT mixamorig7:LeftHandMiddle4
											{
												OFFSET 3.088013 0.000000 0.000000
												CHANNELS 3 Xrotation Yrotation Zrotation
												End Site
												{
													OFFSET 3.087997 -0.000229 -0.009097
												}
											}
										}
									}
								}
								JOINT mixamorig7:LeftHandRing1
								{
									OFFSET 10.000679 0.291443 -2.135665
									CHANNELS 3 Xrotation Yrotation Zrotation
									JOINT mixamorig7:LeftHandRing2
									{
										OFFSET 2.966507 0.000000 0.000000
										CHANNELS 3 Xrotation Yrotation Zrotation
										JOINT mixamorig7:LeftHandRing3
										{
											OFFSET 2.721405 0.000000 0.000000
											CHANNELS 3 Xrotation Yrotation Zrotation
											JOINT mixamorig7:LeftHandRing4
											{
												OFFSET 2.396927 0.000000 0.000000
												CHANNELS 3 Xrotation Yrotation Zrotation
												End Site
												{
													OFFSET 2.396896 0.000534 0.011888
												}
											}
										}
									}
								}
								JOINT mixamorig7:LeftHandPinky1
								{
									OFFSET 8.667770 -0.130829 -4.207381
									CHANNELS 3 Xrotation Yrotation Zrotation
									JOINT mixamorig7:LeftHandPinky2
									{
										OFFSET 2.643135 0.000000 0.000000
										CHANNELS 3 Xrotation Yrotation Zrotation
										JOINT mixamorig7:LeftHandPinky3
										{
											OFFSET 2.303925 0.000000 0.000000
											CHANNELS 3 Xrotation Yrotation Zrotation
											JOINT mixamorig7:LeftHandPinky4
											{
												OFFSET 1.963600 0.000000 0.000000
												CHANNELS 3 Xrotation Yrotation Zrotation
												End Site
												{
													OFFSET 1.963608 -0.000107 -0.002998
												}
											}
										}
									}
								}
							}
						}
					}
				}
				JOINT mixamorig7:RightShoulder
				{
					OFFSET -7.459100 13.238831 -0.958792
					CHANNELS 3 Xrotation Yrotation Zrotation
					JOINT mixamorig7:RightArm
					{
						OFFSET -14.899146 -5.650955 -0.001870
						CHANNELS 3 Xrotation Yrotation Zrotation
						JOINT mixamorig7:RightForeArm
						{
							OFFSET -23.758698 0.000000 -0.000001
							CHANNELS 3 Xrotation Yrotation Zrotation
							JOINT mixamorig7:RightHand
							{
								OFFSET -23.424500 0.000000 -0.000001
								CHANNELS 3 Xrotation Yrotation Zrotation
								JOINT mixamorig7:RightHandThumb1
								{
									OFFSET -3.159088 -1.153671 2.616264
									CHANNELS 3 Xrotation Yrotation Zrotation
									JOINT mixamorig7:RightHandThumb2
									{
										OFFSET -2.640442 -1.524460 1.524461
										CHANNELS 3 Xrotation Yrotation Zrotation
										JOINT mixamorig7:RightHandThumb3
										{
											OFFSET -2.751495 -1.588577 1.588575
											CHANNELS 3 Xrotation Yrotation Zrotation
											JOINT mixamorig7:RightHandThumb4
											{
												OFFSET -2.484169 -1.434235 1.434235
												CHANNELS 3 Xrotation Yrotation Zrotation
												End Site
												{
													OFFSET -2.274292 -1.411621 1.766373
												}
											}
										}
									}
								}
								JOINT mixamorig7:RightHandIndex1
								{
									OFFSET -10.102242 -0.352341 2.579288
									CHANNELS 3 Xrotation Yrotation Zrotation
									JOINT mixamorig7:RightHandIndex2
									{
										OFFSET -3.311905 0.000000 -0.000000
										CHANNELS 3 Xrotation Yrotation Zrotation
										JOINT mixamorig7:RightHandIndex3
										{
											OFFSET -3.114609 0.000000 -0.000000
											CHANNELS 3 Xrotation Yrotation Zrotation
											JOINT mixamorig7:RightHandIndex4
											{
												OFFSET -2.751961 0.000000 -0.000000
												CHANNELS 3 Xrotation Yrotation Zrotation
												End Site
												{
													OFFSET -2.751907 -0.000580 -0.018491
												}
											}
										}
									}
								}
								JOINT mixamorig7:RightHandMiddle1
								{
									OFFSET -10.265968 0.000000 -0.000000
									CHANNELS 3 Xrotation Yrotation Zrotation
									JOINT mixamorig7:RightHandMiddle2
									{
										OFFSET -3.524071 0.000000 0.000000
										CHANNELS 3 Xrotation Yrotation Zrotation
										JOINT mixamorig7:RightHandMiddle3
										{
											OFFSET -3.266708 0.000000 0.000000
											CHANNELS 3 Xrotation Yrotation Zrotation
											JOINT mixamorig7:RightHandMiddle4
											{
												OFFSET -2.783035 0.000000 0.000000
												CHANNELS 3 Xrotation Yrotation Zrotation
												End Site
												{
													OFFSET -2.782997 -0.000443 -0.014293
												}
											}
										}
									}
								}
								JOINT mixamorig7:RightHandRing1
								{
									OFFSET -10.028801 -0.310440 -2.067591
									CHANNELS 3 Xrotation Yrotation Zrotation
									JOINT mixamorig7:RightHandRing2
									{
										OFFSET -2.910011 0.000000 0.000000
										CHANNELS 3 Xrotation Yrotation Zrotation
										JOINT mixamorig7:RightHandRing3
										{
											OFFSET -2.697533 0.000000 0.000000
											CHANNELS 3 Xrotation Yrotation Zrotation
											JOINT mixamorig7:RightHandRing4
											{
												OFFSET -2.383308 0.000000 0.000000
												CHANNELS 3 Xrotation Yrotation Zrotation
												End Site
												{
													OFFSET -2.383293 0.000153 0.004697
												}
											}
										}
									}
								}
								JOINT mixamorig7:RightHandPinky1
								{
									OFFSET -8.778542 -0.246780 -4.231988
									CHANNELS 3 Xrotation Yrotation Zrotation
									JOINT mixamorig7:RightHandPinky2
									{
										OFFSET -2.771614 0.000000 0.000000
										CHANNELS 3 Xrotation Yrotation Zrotation
										JOINT mixamorig7:RightHandPinky3
										{
											OFFSET -2.229317 0.000000 0.000000
											CHANNELS 3 Xrotation Yrotation Zrotation
											JOINT mixamorig7:RightHandPinky4
											{
												OFFSET -1.952400 0.000000 0.000000
												CHANNELS 3 Xrotation Yrotation Zrotation
												End Site
												{
													OFFSET -1.952393 0.000015 0.000200
												}
											}
										}
									}
								}
							}
						}
					}
				}
			}
		}
	}
	JOINT mixamorig7:LeftUpLeg
	{
		OFFSET 10.168800 -5.969902 0.929900
		CHANNELS 3 Xrotation Yrotation Zrotation
		JOINT mixamorig7:LeftLeg
		{
			OFFSET 0.264112 -41.400845 -2.498346
			CHANNELS 3 Xrotation Yrotation Zrotation
			JOINT mixamorig7:LeftFoot
			{
				OFFSET -0.264104 -38.045753 -2.350477
				CHANNELS 3 Xrotation Yrotation Zrotation
				JOINT mixamorig7:LeftToeBase
				{
					OFFSET 1.939442 -11.653793 16.156235
					CHANNELS 3 Xrotation Yrotation Zrotation
					JOINT mixamorig7:LeftToe_End
					{
						OFFSET 0.873791 0.157644 7.748193
						CHANNELS 3 Xrotation Yrotation Zrotation
						End Site
						{
							OFFSET 0.873791 0.157644 7.748192
						}
					}
				}
			}
		}
	}
	JOINT mixamorig7:RightUpLeg
	{
		OFFSET -10.168800 -5.969902 0.877000
		CHANNELS 3 Xrotation Yrotation Zrotation
		JOINT mixamorig7:RightLeg
		{
			OFFSET -0.264104 -41.400833 -2.119620
			CHANNELS 3 Xrotation Yrotation Zrotation
			JOINT mixamorig7:RightFoot
			{
				OFFSET 0.264099 -38.045677 -2.720191
				CHANNELS 3 Xrotation Yrotation Zrotation
				JOINT mixamorig7:RightToeBase
				{
					OFFSET -1.939489 -11.654438 15.895105
					CHANNELS 3 Xrotation Yrotation Zrotation
					JOINT mixamorig7:RightToe_End
					{
						OFFSET -0.873813 0.157326 7.701490
						CHANNELS 3 Xrotation Yrotation Zrotation
						End Site
						{
							OFFSET -0.873813 0.157326 7.701490
						}
					}
				}
			}
		}
	}
}
MOTION
Frames: 5
Frame Time: 0.033333
0.715449 91.184029 -0.897029 -6.077691 -42.933056 -3.912897 5.840788 4.533985 -1.329667 11.836149 9.038378 -3.081386 11.836142 9.038381 -3.081385 -1.434792 -0.422562 0.079382 -1.434809 -0.422554 0.079383 0.000001 0.000001 -0.000000 1.392444 -0.696097 -7.878232 -14.241765 2.368537 -64.018837 10.466053 -47.320425 7.633483 16.278981 0.618671 18.098835 9.163550 4.814108 -5.499008 -0.334147 0.035374 0.784145 0.000005 -0.000009 0.000011 0.000001 0.000003 -0.000002 -0.902029 -6.980967 -3.808401 0.031291 0.797028 -16.418004 0.000001 0.000002 -0.000002 0.000002 0.000000 -0.000000 1.947885 9.683060 -14.539767 -0.456406 -1.565426 -21.880987 0.000005 0.000003 0.000005 0.000002 0.000000 0.000000 2.605860 14.896812 -31.345251 -0.572579 -2.705642 -32.011823 -0.000004 -0.000003 0.000003 0.000002 -0.000001 -0.000001 4.170599 18.495007 -34.987333 -0.706785 -5.788637 -39.372882 -0.000007 0.000001 -0.000004 -0.000003 -0.000001 -0.000000 1.410922 9.461485 9.792744 1.111365 -24.435217 60.320898 -7.007872 41.772713 8.690741 6.561413 12.319964 11.497989 -8.895851 -4.903157 -0.383706 7.904779 -19.192488 -2.856939 0.000007 0.000010 -0.000006 0.000002 -0.000000 0.000001 -1.085575 -1.215452 4.525297 0.142095 -1.115513 16.942656 0.000017 -0.000001 0.000001 -0.000001 -0.000001 0.000000 -0.663696 -2.903865 12.731567 -0.660592 1.813490 30.578989 -0.000002 0.000001 0.000006 -0.000000 0.000001 -0.000001 2.423574 -7.404531 21.763177 -0.989718 3.764379 37.431035 -0.000010 0.000010 -0.000005 0.000000 0.000001 -0.000001 3.480944 -10.055071 24.322577 -1.458337 7.872090 41.091852 -0.000003 0.000000 0.000010 0.000000 -0.000001 0.000004 -28.544489 5.410770 13.789202 36.383113 -15.237201 0.166885 -5.195594 1.860939 -7.949355 -2.319094 -3.216967 0.802962 -0.000000 -0.000002 0.000000 -5.755412 -14.003451 -15.434614 34.217072 -9.003485 -1.585618 -20.908579 -4.093763 17.567375 -1.784979 -0.356727 0.333179 0.000000 0.000000 0.000000 
0.923310 90.491013 -2.526644 -2.803946 -38.816231 -3.814948 5.958530 3.969612 -0.930891 12.028911 7.969568 -2.312613 12.028913 7.969562 -2.312613 -1.166720 -0.333205 -0.279172 -1.166690 -0.333204 -0.279169 0.000001 -0.000001 -0.000000 1.896262 -2.723873 -8.493564 -21.119894 -7.026342 -55.096872 7.271810 -29.212832 2.532059 13.534687 -6.769458 15.564157 7.651285 1.504512 -2.449098 -0.384589 0.082420 0.628276 0.000001 -0.000005 0.000011 0.000002 0.000004 0.000003 0.352212 -8.930984 3.163322 -0.244250 0.756995 -17.437312 -0.000004 -0.000000 0.000002 -0.000004 0.000000 0.000002 0.674112 8.019794 -8.548888 -0.520174 -0.831848 -16.117431 0.000004 0.000001 0.000005 0.000001 0.000000 -0.000000 1.137406 14.782227 -24.217665 -0.284835 -2.549101 -27.496047 -0.000001 -0.000003 0.000002 -0.000001 -0.000000 0.000000 2.279995 19.877307 -30.260545 -0.369077 -5.861039 -30.541187 -0.000004 0.000002 -0.000005 -0.000002 -0.000001 -0.000002 -0.113135 13.459312 10.423868 -7.306264 -14.527643 56.675346 1.795072 37.310636 0.977640 11.840438 7.431545 -0.041958 -9.409714 -3.024929 0.153063 10.986977 -15.845807 -3.791996 0.000009 0.000014 -0.000004 0.000001 -0.000004 0.000002 -2.900009 -0.611516 3.416911 -0.170033 -1.529846 15.468092 0.000015 0.000000 0.000001 -0.000000 -0.000000 0.000000 -2.166990 -2.263915 11.625047 -1.271674 1.547314 31.612117 0.000000 0.000001 0.000007 0.000000 -0.000000 -0.000002 1.545921 -5.885240 20.778617 -0.620741 4.026786 36.664814 -0.000010 0.000008 -0.000006 -0.000001 0.000001 0.000003 2.430443 -6.689864 28.959241 -0.896182 8.469636 38.465067 -0.000004 0.000001 0.000006 0.000000 -0.000000 0.000002 -34.785344 2.825747 14.471366 40.693516 -15.290948 1.759511 -5.522432 2.186392 -10.199690 -2.462107 -3.508914 1.019270 -0.000000 0.000001 -0.000000 -10.363357 -17.102975 -13.873581 40.446359 -4.251849 -1.290082 -24.278961 -4.088404 11.578927 -4.805979 -2.039666 2.463357 0.000000 0.000003 0.000000 
1.324083 89.162178 -3.813184 2.685831 -35.616800 -4.106242 5.980500 3.445674 -0.667769 12.047686 6.951255 -1.839137 12.047697 6.951246 -1.839138 -0.906603 -0.200649 -0.507672 -0.906552 -0.200656 -0.507676 0.000004 0.000001 -0.000000 2.637460 -3.797311 -8.481147 -21.208617 -9.570951 -45.815656 4.113567 -20.953320 -0.841303 7.340206 -10.268780 13.322176 6.361715 -1.370792 0.820679 -0.431513 0.207315 0.484648 0.000002 -0.000006 0.000009 -0.000000 0.000002 -0.000002 1.245947 -9.960440 6.834452 -0.594667 0.604764 -19.637981 -0.000001 0.000005 -0.000005 0.000000 0.000000 -0.000002 -0.127342 5.671585 -5.450186 -0.769978 -0.469970 -13.539311 0.000002 0.000001 0.000007 0.000005 0.000000 -0.000000 -0.001789 13.041104 -20.067068 -0.047081 -2.484281 -25.160703 0.000000 -0.000003 0.000003 -0.000002 0.000000 -0.000000 0.316188 18.996646 -27.756273 -0.054411 -5.886643 -24.646241 -0.000000 0.000002 -0.000005 -0.000002 0.000000 -0.000002 -0.538568 17.801061 10.032864 -16.709462 -6.810438 49.477696 5.375964 28.631156 -2.326518 10.035847 2.507521 -5.141629 -10.131263 -1.068698 0.577360 14.364023 -12.235358 -5.146765 0.000008 0.000017 -0.000004 -0.000000 -0.000004 0.000004 -4.393724 0.743152 2.814424 -0.494725 -1.972972 13.515153 0.000013 -0.000001 0.000004 0.000000 0.000000 -0.000001 -3.655391 -1.197906 10.903930 -1.927127 1.220860 32.514118 0.000000 0.000000 0.000005 0.000002 -0.000000 0.000001 0.478236 -4.405021 20.226116 -0.186861 4.279188 35.559413 -0.000010 0.000009 -0.000001 0.000001 -0.000000 -0.000002 0.496015 -3.805390 34.421725 -0.201085 9.003403 35.197348 -0.000006 0.000003 0.000012 -0.000002 -0.000001 -0.000002 -44.621561 -0.049507 16.196021 48.277409 -14.680670 2.739458 -5.595004 1.816296 -8.697875 -2.570454 -3.581116 1.080484 -0.000000 -0.000003 -0.000000 -17.590642 -19.250287 -10.656410 48.449257 -1.242730 -2.336302 -26.376022 -3.776385 6.967026 -7.832554 -4.188215 5.391359 0.000000 -0.000001 0.000000 
1.629549 87.295364 -4.756493 11.222935 -33.561839 -2.196753 5.602613 3.089644 -0.638709 11.282930 6.232997 -1.797143 11.282921 6.233003 -1.797145 -0.989418 -0.136099 -0.587656 -0.989416 -0.136097 -0.587656 -0.000001 -0.000001 0.000001 3.539192 -3.911653 -7.507232 -14.267557 -2.556863 -37.324586 2.041890 -23.485459 -5.512511 0.306511 -7.514238 11.954322 5.523349 -3.252359 3.842593 0.009987 1.352087 0.517626 0.000008 -0.000006 0.000008 -0.000000 0.000002 -0.000000 1.051645 -9.282285 4.594383 -1.098595 0.137978 -24.818867 0.000000 -0.000000 0.000005 0.000002 -0.000000 -0.000001 -0.502163 2.886835 -7.352122 -1.248643 -0.872235 -17.924551 0.000003 0.000000 0.000003 0.000002 0.000000 0.000001 -1.176968 9.288042 -21.340313 0.062359 -2.668230 -27.725836 -0.000003 -0.000002 0.000002 0.000002 0.000000 0.000001 -2.067482 15.022019 -29.724775 0.236835 -5.991987 -25.513332 -0.000007 0.000001 -0.000006 0.000001 -0.000001 -0.000001 -0.113674 21.225486 8.331816 -21.026995 -6.378673 41.100066 6.225554 23.714951 -2.958554 5.907960 -4.580433 -4.780052 -9.835102 0.430996 1.372792 17.488353 -8.959766 -6.719167 0.000004 0.000018 -0.000001 -0.000002 -0.000004 0.000002 -5.258800 1.902530 4.575833 -0.849743 -2.173820 13.619664 0.000014 -0.000000 -0.000000 0.000001 0.000000 0.000002 -4.859531 -0.063354 12.844703 -2.587144 0.979119 34.538976 0.000001 0.000000 0.000006 -0.000000 -0.000000 -0.000001 -0.845480 -2.658733 22.350877 0.145059 4.618373 36.106873 -0.000009 0.000009 -0.000002 -0.000002 -0.000000 0.000002 -2.315439 -1.517571 40.397400 0.381101 9.589557 34.574643 -0.000003 0.000000 0.000006 -0.000001 0.000000 0.000002 -56.669649 -3.257969 16.728300 53.824155 -15.001365 3.372856 -5.493885 1.430676 -6.972308 -2.767634 -3.202540 0.616629 -0.000000 -0.000002 0.000000 -28.318419 -19.435027 -8.222707 57.406271 0.064650 -3.111269 -28.144566 -3.480421 3.019251 -10.743019 -6.776882 8.502892 0.000001 0.000000 -0.000000 
1.884291 84.696854 -5.316429 23.261717 -31.804124 1.536272 4.795657 2.981750 -0.756747 9.672345 5.988183 -2.033082 9.672357 5.988189 -2.033082 -1.586470 -0.236343 -0.639088 -1.586437 -0.236344 -0.639097 0.000001 0.000001 -0.000001 4.687344 -2.776185 -6.772822 -2.946990 12.017895 -32.233903 2.413889 -31.809772 -11.006958 -3.874807 -0.172445 11.438697 5.149038 -3.995786 6.023610 0.893426 3.365984 0.702856 0.000002 -0.000006 0.000009 -0.000004 0.000002 -0.000004 -0.072627 -7.260772 -3.176960 -1.766647 -0.647292 -33.115254 -0.000001 0.000001 0.000001 -0.000002 0.000002 -0.000001 -0.767988 0.342332 -13.964276 -1.986292 -1.902766 -28.748918 -0.000000 0.000000 0.000004 0.000001 -0.000002 0.000001 -2.919828 4.892771 -28.284288 -0.042911 -3.090822 -35.282319 0.000002 -0.000002 0.000002 0.000000 0.000002 -0.000001 -5.120775 9.761831 -36.893356 0.404544 -6.198018 -33.192267 -0.000006 -0.000002 -0.000007 -0.000001 -0.000000 0.000001 0.718794 21.613138 6.186798 -19.131471 -14.913646 33.396166 8.712420 23.307542 -3.734226 6.947414 -12.286552 -1.342861 -6.841103 1.067317 3.390383 19.640805 -6.680007 -8.109849 0.000010 0.000018 -0.000001 -0.000003 -0.000001 -0.000002 -5.111558 1.621909 10.367359 -1.351033 -1.792657 19.430543 0.000015 0.000002 0.000002 0.000001 -0.000001 -0.000001 -5.454048 0.669899 19.589840 -3.255486 1.039957 39.639536 0.000001 -0.000001 0.000006 -0.000000 -0.000001 -0.000000 -2.552074 -0.271876 29.251364 0.133087 5.181510 41.229761 -0.000008 0.000009 -0.000004 0.000001 0.000002 -0.000001 -5.645819 0.582895 46.124370 0.541005 10.482393 41.329430 -0.000005 0.000001 0.000009 0.000001 -0.000002 -0.000002 -72.173619 -7.199651 16.116065 60.101198 -15.150739 3.741856 -6.479372 1.187531 -6.090168 -2.637410 -2.778171 0.544348 -0.000000 -0.000003 0.000000 -42.157881 -18.064778 -6.137623 65.649121 -0.732564 -2.625365 -29.913507 -4.052057 1.705873 -12.722724 -7.520592 9.616232 0.000000 0.000001 0.000000 
